<?xml version="1.0"?>
<svg xmlns="http://www.w3.org/2000/svg" xmlns:xlink="http://www.w3.org/1999/xlink" version="1.1" id="Capa_1" x="0px" y="0px" viewBox="0 0 512 512" style="enable-background:new 0 0 512 512;" xml:space="preserve" width="512px" height="512px"><g><g>
	<g>
		<path d="M418.123,339.827c-4.222-4.221-11.067-4.221-15.29,0l-8.478,8.478l-8.203-22.374l29.676-29.676    c4.222-4.222,4.222-11.067,0-15.29l-30.577-30.577c-4.222-4.219-11.067-4.221-15.289,0l-8.419,8.419l-8.888-24.242    c32.317-35.126,63.432-71.342,93.251-108.562c0.038-0.047,0.075-0.093,0.111-0.141c18.194-23.497,25.407-52.171,26.091-71.171    c0.115-3.19-1.186-6.268-3.555-8.408c-2.369-2.142-5.562-3.124-8.723-2.69c-23.468,3.229-48.68,13.984-67.513,28.82    c-37.22,29.819-73.436,60.935-108.562,93.251l-24.241-8.888l8.419-8.419c4.222-4.222,4.222-11.067,0-15.29l-30.577-30.577    c-4.222-4.221-11.067-4.221-15.29,0l-29.677,29.677l-22.374-8.203l8.478-8.478c4.222-4.222,4.222-11.067,0-15.29l-30.578-30.576    c-4.222-4.221-11.067-4.221-15.29,0l-29.735,29.736l-15.89-5.826c-3.952-1.45-8.388-0.471-11.365,2.505l-46.84,46.838    c-2.389,2.389-3.524,5.758-3.067,9.106c0.457,3.348,2.453,6.29,5.395,7.951l163.751,92.495    c-28.07,29.062-55.303,58.929-81.644,89.546l-56.799-12.845c-3.618-0.816-7.405,0.277-10.029,2.901l-29.788,29.789    c-2.28,2.28-3.424,5.461-3.118,8.67c0.306,3.211,2.029,6.117,4.699,7.925l47.795,32.377c0.402,0.616,0.866,1.202,1.404,1.741    l38.393,38.393c0.542,0.541,1.129,1.011,1.747,1.414l32.372,47.786c1.809,2.67,4.715,4.392,7.925,4.699    c0.343,0.032,0.685,0.049,1.026,0.049c2.853,0,5.607-1.13,7.644-3.166l29.789-29.789c2.624-2.624,3.718-6.411,2.899-10.029    l-12.845-56.798c30.617-26.34,60.483-53.574,89.546-81.644l92.495,163.751c1.662,2.943,4.603,4.937,7.951,5.395    c0.489,0.067,0.976,0.099,1.463,0.099c2.846,0,5.603-1.125,7.643-3.166l46.84-46.839c2.977-2.977,3.955-7.412,2.505-11.366    l-5.826-15.891l29.735-29.735c4.222-4.222,4.222-11.067,0-15.29L418.123,339.827z M377.607,273.32l15.289,15.29l-14.946,14.947    l-8.203-22.375L377.607,273.32z M448.765,67.981c-2.482,12.46-7.746,27.28-16.798,40.447c-5.698-2.167-10.896-5.513-15.264-9.88    c-3.363-3.364-6.081-7.159-8.155-11.316C421.489,77.726,436.143,71.498,448.765,67.981z M229.711,125.426L245,140.715l-7.86,7.86    l-22.375-8.203L229.711,125.426z M140.273,92.555l15.289,15.289l-7.92,7.919l-22.374-8.203L140.273,92.555z M54.147,148.104    l31.896-31.896l179.969,65.982c-18.836,17.734-37.352,35.808-55.522,54.225L54.147,148.104z M41.159,367.852l16.319-16.32    l39.947,9.033c-8.096,9.637-16.078,19.366-23.997,29.145L41.159,367.852z M150.47,477.162l-21.859-32.269    c9.779-7.919,19.509-15.899,29.145-23.997l9.034,39.947L150.47,477.162z M114.216,428.771l-4.689-4.689l46.362-46.361    c4.222-4.222,4.223-11.067,0-15.29c-4.223-4.219-11.067-4.221-15.289,0l-46.362,46.361l-4.689-4.689    c89.814-111.036,191.295-212.927,301.896-303.168c2.771,4.684,6.108,9.04,9.969,12.9c4.938,4.938,10.588,9.007,16.736,12.102    C327.683,236.942,225.548,338.719,114.216,428.771z M370.218,464.174L281.907,307.83c18.417-18.171,36.492-36.688,54.225-55.523    l65.982,179.971L370.218,464.174z M410.762,393.052l-8.203-22.374l7.919-7.919l15.289,15.289L410.762,393.052z" data-original="#000000" class="active-path" data-old_color="#e350b8" fill="#e350b8"/>
	</g>
</g><g>
	<g>
		<path d="M209.307,187.638l-40.573-23.058c-5.191-2.95-11.79-1.134-14.74,4.057c-2.95,5.191-1.134,11.79,4.057,14.742    l40.573,23.058c1.686,0.959,3.521,1.414,5.332,1.414c3.762,0,7.417-1.966,9.409-5.471    C216.315,197.188,214.498,190.589,209.307,187.638z" data-original="#000000" class="active-path" data-old_color="#e350b8" fill="#e350b8"/>
	</g>
</g><g>
	<g>
		<path d="M352.252,348.095l-23.059-40.572c-2.951-5.19-9.55-7.008-14.741-4.057c-5.19,2.95-7.006,9.55-4.056,14.741l23.059,40.572    c1.991,3.504,5.646,5.471,9.409,5.471c1.81,0,3.645-0.456,5.332-1.414C353.386,359.886,355.202,353.286,352.252,348.095z" data-original="#000000" class="active-path" data-old_color="#e350b8" fill="#e350b8"/>
	</g>
</g><g>
	<g>
		<path d="M51.707,257.564c-4.223-4.221-11.067-4.221-15.289,0L3.166,290.817c-4.222,4.222-4.222,11.067,0,15.29    c2.111,2.11,4.878,3.166,7.644,3.166s5.534-1.056,7.644-3.166l33.253-33.254C55.929,268.632,55.929,261.786,51.707,257.564z" data-original="#000000" class="active-path" data-old_color="#e350b8" fill="#e350b8"/>
	</g>
</g><g>
	<g>
		<path d="M47.323,74.776c-2.032-2.043-4.757-3.168-7.643-3.168c-2.886,0-5.6,1.124-7.643,3.168c-4.216,4.205-4.216,11.07,0,15.286    c2.043,2.043,4.757,3.168,7.643,3.168c2.886,0,5.611-1.124,7.643-3.169c2.043-2.043,3.168-4.756,3.168-7.642    C50.49,79.521,49.366,76.808,47.323,74.776z" data-original="#000000" class="active-path" data-old_color="#e350b8" fill="#e350b8"/>
	</g>
</g><g>
	<g>
		<path d="M98.544,23.555c-2.043-2.044-4.757-3.168-7.643-3.168s-5.6,1.123-7.643,3.168L62.62,44.193    c-4.216,4.216-4.216,11.07,0,15.286c2.043,2.043,4.757,3.168,7.643,3.168s5.6-1.124,7.643-3.169L98.544,38.84    c2.043-2.043,3.168-4.756,3.168-7.642C101.711,28.31,100.587,25.597,98.544,23.555z" data-original="#000000" class="active-path" data-old_color="#e350b8" fill="#e350b8"/>
	</g>
</g><g>
	<g>
		<path d="M252.942,486.847c-2.043-2.042-4.757-3.166-7.654-3.166c-2.886,0-5.6,1.124-7.643,3.168    c-2.043,2.043-3.168,4.757-3.168,7.643s1.124,5.61,3.168,7.642c2.043,2.044,4.757,3.169,7.643,3.169    c2.897,0,5.611-1.124,7.654-3.169C257.148,497.928,257.148,491.064,252.942,486.847z" data-original="#000000" class="active-path" data-old_color="#e350b8" fill="#e350b8"/>
	</g>
</g><g>
	<g>
		<path d="M304.153,435.638c-2.043-2.043-4.757-3.168-7.643-3.168c-2.887,0-5.6,1.124-7.643,3.168l-20.638,20.638    c-4.216,4.216-4.216,11.07,0,15.287c2.043,2.043,4.757,3.168,7.643,3.168s5.6-1.124,7.643-3.168l20.638-20.638    C308.369,446.709,308.369,439.844,304.153,435.638z" data-original="#000000" class="active-path" data-old_color="#e350b8" fill="#e350b8"/>
	</g>
</g><g>
	<g>
		<path d="M434.681,479.119c-2.032-2.043-4.757-3.168-7.643-3.168c-2.886,0-5.6,1.124-7.643,3.168    c-2.043,2.034-3.168,4.747-3.168,7.643c0,2.886,1.124,5.6,3.168,7.643c2.043,2.043,4.757,3.168,7.643,3.168    s5.611-1.124,7.643-3.168c2.043-2.044,3.168-4.757,3.168-7.643C437.849,483.864,436.725,481.152,434.681,479.119z" data-original="#000000" class="active-path" data-old_color="#e350b8" fill="#e350b8"/>
	</g>
</g><g>
	<g>
		<path d="M508.843,404.968c-2.043-2.043-4.757-3.168-7.654-3.168c-2.886,0-5.6,1.124-7.643,3.168l-43.567,43.567    c-4.216,4.216-4.216,11.07,0,15.287c2.043,2.043,4.757,3.168,7.643,3.168s5.6-1.124,7.643-3.168l43.578-43.567    c2.032-2.044,3.157-4.757,3.157-7.643S510.875,407.011,508.843,404.968z" data-original="#000000" class="active-path" data-old_color="#e350b8" fill="#e350b8"/>
	</g>
</g><g>
	<g>
		<path d="M468.359,196.844c-4.222-4.221-11.067-4.221-15.29,0l-34.074,34.074c-4.222,4.222-4.222,11.067,0,15.29    c2.111,2.11,4.878,3.167,7.645,3.167c2.766,0,5.534-1.056,7.644-3.167l34.074-34.074    C472.581,207.912,472.581,201.067,468.359,196.844z" data-original="#000000" class="active-path" data-old_color="#e350b8" fill="#e350b8"/>
	</g>
</g><g>
	<g>
		<path d="M342.165,32.767c-4.222-4.221-11.067-4.221-15.289,0l-52.529,52.528c-4.222,4.222-4.222,11.067,0,15.29    c2.112,2.11,4.879,3.166,7.645,3.166s5.534-1.056,7.644-3.166l52.528-52.528C346.387,43.835,346.387,36.989,342.165,32.767z" data-original="#000000" class="active-path" data-old_color="#e350b8" fill="#e350b8"/>
	</g>
</g><g>
	<g>
		<path d="M238.252,9.863c-4.222-4.221-11.067-4.221-15.289,0l-33.529,33.532c-4.222,4.222-4.222,11.067,0,15.29    c2.111,2.109,4.878,3.165,7.644,3.165c2.766,0,5.534-1.056,7.644-3.166l33.529-33.531    C242.473,20.931,242.473,14.086,238.252,9.863z" data-original="#000000" class="active-path" data-old_color="#e350b8" fill="#e350b8"/>
	</g>
</g></g> </svg>
