<?xml version="1.0"?>
<svg xmlns="http://www.w3.org/2000/svg" xmlns:xlink="http://www.w3.org/1999/xlink" version="1.1" id="Capa_1" x="0px" y="0px" viewBox="0 0 512 512" style="enable-background:new 0 0 512 512;" xml:space="preserve" width="512px" height="512px" class=""><g><g>
	<g>
		<path d="M405.793,181.119h-5.395V7.483c0-4.132-3.35-7.483-7.483-7.483h-29.074c-4.132,0-7.483,3.35-7.483,7.483    s3.35,7.483,7.483,7.483h21.592V181.12H194.3h-0.001c-4.132,0-7.483,3.35-7.483,7.483c0,4.132,3.35,7.483,7.483,7.483h0.001    h198.615h5.395v36.234h-5.395H351.79c-4.132,0-7.483,3.35-7.483,7.483c0,4.132,3.35,7.483,7.483,7.483h33.281    c-3.773,38.906-36.66,69.417-76.54,69.417h-14.178c-4.132,0-7.483,3.35-7.483,7.483v139.271c0,18.517-15.064,33.581-33.581,33.581    s-33.581-15.064-33.581-33.581V324.183c0-4.132-3.35-7.483-7.483-7.483h-14.178c-39.88,0-72.766-30.511-76.54-69.417h200.35    c4.132,0,7.483-3.35,7.483-7.483s-3.35-7.483-7.483-7.483H113.667h-5.395v-36.234h5.395h50.703h0.001    c4.132,0,7.483-3.35,7.483-7.483s-3.35-7.483-7.483-7.483h-0.001h-43.22V14.965h35.738v112.952    c0,17.255,14.038,31.292,31.293,31.292s31.293-14.037,31.293-31.292V92.393c0-8.191,6.663-14.853,14.853-14.853    s14.853,6.663,14.853,14.853v17.134c0,17.686,14.388,32.073,32.073,32.073c17.686,0,32.073-14.388,32.073-32.073V14.965h20.584    c4.132,0,7.483-3.35,7.483-7.483S338.043,0,333.91,0h-28.067H164.37h-50.703c-4.132,0-7.483,3.35-7.483,7.483V181.12h-5.395    c-4.132,0-7.483,3.35-7.483,7.483v51.199c0,4.132,3.35,7.483,7.483,7.483h5.702c3.82,47.168,43.424,84.382,91.56,84.382h6.695    v131.789c0,26.769,21.777,48.546,48.546,48.546c26.769,0,48.546-21.777,48.546-48.546V331.666h6.695    c48.135,0,87.738-37.214,91.558-84.383h5.702c4.132,0,7.483-3.35,7.483-7.483v-51.199    C413.275,184.469,409.925,181.119,405.793,181.119z M171.853,14.965h126.509v94.562c0,9.434-7.675,17.108-17.108,17.108    c-9.434,0-17.108-7.675-17.108-17.108V92.393c0-16.442-13.377-29.818-29.818-29.818c-16.442,0-29.818,13.377-29.818,29.818v35.524    c0,9.003-7.325,16.327-16.328,16.327s-16.328-7.324-16.328-16.327V14.965z" data-original="#000000" class="active-path" data-old_color="#e350b8" fill="#e350b8"/>
	</g>
</g><g>
	<g>
		<path d="M97.68,152.777l-18.209-8.161c-5.872-2.632-10.556-7.315-13.187-13.187l-8.161-18.209    c-1.206-2.691-3.88-4.423-6.828-4.423c-2.948,0-5.622,1.732-6.828,4.423l-8.161,18.209c-2.632,5.872-7.315,10.555-13.187,13.187    l-18.209,8.161c-2.691,1.206-4.423,3.88-4.423,6.828c0,2.949,1.732,5.622,4.423,6.828l18.209,8.161    c5.872,2.632,10.555,7.315,13.187,13.187l8.161,18.209c1.206,2.691,3.88,4.423,6.828,4.423c2.949,0,5.622-1.732,6.828-4.423    l8.161-18.209c2.632-5.872,7.316-10.556,13.187-13.187l18.209-8.161c2.691-1.206,4.423-3.88,4.423-6.828    C102.103,156.656,100.371,153.983,97.68,152.777z M73.351,160.937c-9.228,4.136-16.587,11.496-20.724,20.724l-1.332,2.973    l-1.333-2.973c-4.135-9.229-11.494-16.588-20.723-20.725l-2.973-1.332l2.973-1.332c9.229-4.136,16.587-11.495,20.723-20.723    l1.333-2.973l1.333,2.973c4.135,9.227,11.495,16.587,20.723,20.723l2.973,1.332L73.351,160.937z" data-original="#000000" class="active-path" data-old_color="#e350b8" fill="#e350b8"/>
	</g>
</g><g>
	<g>
		<path d="M507.089,96.718l-18.209-8.161c-5.872-2.632-10.556-7.316-13.187-13.187l-8.161-18.209    c-1.206-2.691-3.88-4.423-6.828-4.423c-2.949,0-5.622,1.732-6.828,4.423l-8.161,18.209c-2.632,5.872-7.315,10.555-13.187,13.187    l-18.208,8.161c-2.691,1.206-4.423,3.88-4.423,6.828c0,2.949,1.732,5.622,4.423,6.828l18.208,8.161    c5.872,2.632,10.556,7.315,13.187,13.187l8.161,18.209c1.206,2.691,3.88,4.423,6.828,4.423c2.949,0,5.622-1.732,6.828-4.423    l8.161-18.209c2.632-5.872,7.316-10.555,13.187-13.187l18.209-8.161c2.691-1.206,4.423-3.88,4.423-6.828    S509.78,97.925,507.089,96.718z M482.76,104.879c-9.228,4.136-16.588,11.495-20.724,20.724l-1.332,2.973l-1.332-2.973    c-4.136-9.228-11.495-16.588-20.724-20.724l-2.973-1.332l2.973-1.332c9.228-4.136,16.587-11.495,20.724-20.724l1.332-2.973    l1.332,2.973c4.135,9.229,11.495,16.588,20.724,20.724l2.973,1.332L482.76,104.879z" data-original="#000000" class="active-path" data-old_color="#e350b8" fill="#e350b8"/>
	</g>
</g><g>
	<g>
		<path d="M463.765,335.353l-18.209-8.161c-5.872-2.632-10.556-7.315-13.187-13.187l-8.161-18.209    c-1.206-2.691-3.88-4.423-6.828-4.423c-2.949,0-5.622,1.732-6.828,4.423l-8.16,18.209c-2.632,5.872-7.316,10.555-13.188,13.187    l-18.209,8.161c-2.691,1.206-4.423,3.88-4.423,6.828s1.732,5.622,4.423,6.828l18.209,8.161    c5.872,2.632,10.556,7.315,13.187,13.187l8.161,18.209c1.206,2.691,3.88,4.423,6.828,4.423c2.949,0,5.622-1.732,6.828-4.423    l8.161-18.209c2.632-5.872,7.315-10.556,13.187-13.187l18.209-8.161c2.691-1.206,4.423-3.88,4.423-6.828    S466.455,336.559,463.765,335.353z M439.435,343.513c-9.228,4.136-16.587,11.496-20.724,20.724l-1.332,2.973l-1.333-2.973    c-4.136-9.227-11.495-16.587-20.724-20.724l-2.973-1.332l2.973-1.333c9.227-4.136,16.587-11.495,20.724-20.723l1.333-2.973    l1.333,2.973c4.135,9.227,11.495,16.587,20.723,20.723l2.973,1.333L439.435,343.513z" data-original="#000000" class="active-path" data-old_color="#e350b8" fill="#e350b8"/>
	</g>
</g><g>
	<g>
		<path d="M131.44,331.214c-1.421-1.637-3.483-2.579-5.652-2.579s-4.231,0.941-5.653,2.579    c-4.375,5.044-42.743,49.988-42.743,74.665c0,26.686,21.71,48.396,48.396,48.396c26.686,0,48.396-21.71,48.396-48.396    C174.184,381.202,135.815,336.257,131.44,331.214z M125.788,439.311c-18.434,0-33.431-14.997-33.431-33.431    c0-12.711,18.659-39.911,33.431-58.111c14.772,18.2,33.431,45.398,33.431,58.111C159.219,424.314,144.222,439.311,125.788,439.311    z" data-original="#000000" class="active-path" data-old_color="#e350b8" fill="#e350b8"/>
	</g>
</g></g> </svg>
