<?xml version="1.0"?>
<svg xmlns="http://www.w3.org/2000/svg" xmlns:xlink="http://www.w3.org/1999/xlink" version="1.1" id="Layer_1" x="0px" y="0px" viewBox="0 0 512 512" style="enable-background:new 0 0 512 512;" xml:space="preserve" width="512px" height="512px" class=""><g><g>
	<g>
		<path d="M394.557,268.864h-0.011c-3.983,0-7.386,2.902-7.978,6.84c-9.669,64.341-65.926,113.636-133.215,112.312    c-69.547-1.369-126.597-57.279-129.293-126.787c-2.918-75.18,57.396-137.271,131.94-137.271    c66.939,0,122.403,50.07,130.909,114.725c0.526,3.999,3.964,6.971,7.997,6.971c4.87,0,8.659-4.281,8.023-9.109    c-9.607-72.948-72.463-129.351-148.126-128.749c-81.774,0.649-148.012,68.292-147.002,150.063    c0.999,80.871,67.097,146.352,148.2,146.352c74.226,0,135.872-54.849,146.56-126.144    C403.288,273.212,399.466,268.864,394.557,268.864z" data-original="#000000" class="active-path" data-old_color="#e350b8" fill="#e350b8"/>
	</g>
</g><g>
	<g>
		<path d="M497.995,440.831l-81.221-81.221c19.321-29.879,30.553-65.456,30.553-103.609c0-105.498-85.828-191.326-191.326-191.326    S64.674,150.502,64.674,256S150.502,447.326,256,447.326c38.153,0,73.73-11.232,103.609-30.553l81.221,81.221    c7.635,7.635,17.785,11.84,28.581,11.84c10.797,0,20.948-4.205,28.583-11.84C513.755,482.235,513.755,456.591,497.995,440.831z     M256,431.158c-96.583,0-175.158-78.575-175.158-175.158S159.417,80.842,256,80.842S431.158,159.417,431.158,256    S352.583,431.158,256,431.158z M486.562,486.562c-4.581,4.581-10.671,7.103-17.149,7.103s-12.568-2.523-17.149-7.103    l-79.277-79.277c12.826-9.941,24.357-21.473,34.299-34.299l79.277,79.277C496.017,461.719,496.017,477.105,486.562,486.562z" data-original="#000000" class="active-path" data-old_color="#e350b8" fill="#e350b8"/>
	</g>
</g><g>
	<g>
		<path d="M61.979,183.242H18.863c-4.465,0-8.084,3.62-8.084,8.084c0,4.465,3.62,8.084,8.084,8.084h43.116    c4.465,0,8.084-3.62,8.084-8.084C70.063,186.862,66.444,183.242,61.979,183.242z" data-original="#000000" class="active-path" data-old_color="#e350b8" fill="#e350b8"/>
	</g>
</g><g>
	<g>
		<path d="M353.01,183.242h-46.94c-3.529-12.426-14.971-21.558-28.512-21.558c-13.542,0-24.983,9.132-28.513,21.558h-90.056    c-4.465,0-8.084,3.62-8.084,8.084c0,4.465,3.62,8.084,8.084,8.084h90.056c3.529,12.426,14.971,21.558,28.513,21.558    c13.542,0,24.983-9.132,28.512-21.558h46.94c4.465,0,8.084-3.62,8.084-8.084C361.095,186.862,357.475,183.242,353.01,183.242z     M277.558,204.8c-7.43,0-13.474-6.044-13.474-13.474c0-7.43,6.044-13.474,13.474-13.474s13.474,6.044,13.474,13.474    C291.032,198.756,284.988,204.8,277.558,204.8z" data-original="#000000" class="active-path" data-old_color="#e350b8" fill="#e350b8"/>
	</g>
</g><g>
	<g>
		<path d="M482.358,183.242h-32.337c-4.465,0-8.084,3.62-8.084,8.084c0,4.465,3.62,8.084,8.084,8.084h32.337    c4.465,0,8.084-3.62,8.084-8.084C490.442,186.862,486.823,183.242,482.358,183.242z" data-original="#000000" class="active-path" data-old_color="#e350b8" fill="#e350b8"/>
	</g>
</g><g>
	<g>
		<path d="M353.01,312.589H241.397c-3.529-12.426-14.971-21.558-28.512-21.558c-16.345,0-29.642,13.297-29.642,29.642    c0,16.345,13.297,29.642,29.642,29.642c13.542,0,24.983-9.132,28.512-21.558H353.01c4.465,0,8.084-3.62,8.084-8.084    C361.095,316.209,357.475,312.589,353.01,312.589z M212.884,334.147c-7.43,0-13.474-6.044-13.474-13.474    s6.044-13.474,13.474-13.474s13.474,6.044,13.474,13.474S220.314,334.147,212.884,334.147z" data-original="#000000" class="active-path" data-old_color="#e350b8" fill="#e350b8"/>
	</g>
</g><g>
	<g>
		<path d="M471.579,312.589h-21.558c-4.465,0-8.084,3.62-8.084,8.084c0,4.465,3.62,8.084,8.084,8.084h21.558    c4.465,0,8.084-3.62,8.084-8.084C479.663,316.209,476.044,312.589,471.579,312.589z" data-original="#000000" class="active-path" data-old_color="#e350b8" fill="#e350b8"/>
	</g>
</g><g>
	<g>
		<path d="M191.326,474.274H58.155c-3.529-12.426-14.971-21.558-28.513-21.558C13.297,452.716,0,466.013,0,482.358    C0,498.703,13.297,512,29.642,512c13.542,0,24.983-9.132,28.513-21.558h133.172c4.465,0,8.084-3.62,8.084-8.084    C199.411,477.893,195.791,474.274,191.326,474.274z M29.642,495.832c-7.43,0-13.474-6.044-13.474-13.474    s6.044-13.474,13.474-13.474c7.43,0,13.474,6.044,13.474,13.474S37.072,495.832,29.642,495.832z" data-original="#000000" class="active-path" data-old_color="#e350b8" fill="#e350b8"/>
	</g>
</g><g>
	<g>
		<path d="M471.579,0c-19.521,0-35.852,13.909-39.607,32.337h-89.74c-4.465,0-8.084,3.62-8.084,8.084    c0,4.465,3.62,8.084,8.084,8.084h89.74c3.755,18.428,20.087,32.337,39.607,32.337C493.868,80.842,512,62.71,512,40.421    S493.868,0,471.579,0z M471.579,64.674c-13.373,0-24.253-10.879-24.253-24.253c0-13.373,10.879-24.253,24.253-24.253    c13.373,0,24.253,10.879,24.253,24.253C495.832,53.794,484.952,64.674,471.579,64.674z" data-original="#000000" class="active-path" data-old_color="#e350b8" fill="#e350b8"/>
	</g>
</g></g> </svg>
