<?xml version="1.0"?>
<svg xmlns="http://www.w3.org/2000/svg" xmlns:xlink="http://www.w3.org/1999/xlink" version="1.1" id="Layer_1" x="0px" y="0px" viewBox="0 0 512 512" style="enable-background:new 0 0 512 512;" xml:space="preserve" width="512px" height="512px"><g><g>
	<g>
		<g>
			<path d="M503.916,183.997c4.466,0,8.084-3.62,8.084-8.084v-35.159c0-14.746-11.997-26.743-26.743-26.743H322.323l-8.788-22.894     c-1.199-3.125-4.199-5.188-7.547-5.188h-99.975c-3.348,0-6.349,2.063-7.547,5.188l-8.788,22.894H26.743     C11.997,114.011,0,126.007,0,140.754v258.575c0,14.746,11.997,26.743,26.743,26.743h458.515     c14.746,0,26.743-11.996,26.743-26.743V200.703c0-4.465-3.618-8.084-8.084-8.084c-4.466,0-8.084,3.62-8.084,8.084v198.626     c0,5.83-4.743,10.574-10.574,10.574H325.109c51.459-25.531,86.919-78.629,86.919-139.861s-35.461-114.33-86.919-139.861h160.148     c5.83,0,10.574,4.743,10.574,10.574v35.159C495.832,180.377,499.45,183.997,503.916,183.997z M211.568,102.099h88.863     l4.572,11.913h-98.009L211.568,102.099z M395.861,270.042c0,77.12-62.741,139.861-139.861,139.861     c-38.063,0-73.651-15.022-100.211-42.295c-3.114-3.198-8.232-3.266-11.431-0.152c-3.199,3.115-3.266,8.233-0.152,11.432     c12.525,12.864,26.856,23.272,42.429,31.015H26.743c-5.83,0-10.574-4.743-10.574-10.574V140.755     c0-5.83,4.743-10.574,10.574-10.574h160.148c-51.459,25.531-86.919,78.629-86.919,139.861c0,32.057,9.649,62.856,27.906,89.071     c2.55,3.664,7.591,4.566,11.253,2.015c3.664-2.551,4.565-7.591,2.014-11.254c-16.358-23.49-25.004-51.094-25.004-79.831     c0-77.119,62.741-139.861,139.861-139.861S395.861,192.922,395.861,270.042z" data-original="#000000" class="active-path" data-old_color="#e350b8" fill="#e350b8"/>
			<path d="M139.048,270.042c0,64.487,52.464,116.952,116.952,116.952s116.952-52.464,116.952-116.952S320.487,153.09,256,153.09     S139.048,205.555,139.048,270.042z M356.783,270.042c0,55.572-45.211,100.783-100.783,100.783s-100.783-45.211-100.783-100.783     c0-55.572,45.211-100.783,100.783-100.783S356.783,214.47,356.783,270.042z" data-original="#000000" class="active-path" data-old_color="#e350b8" fill="#e350b8"/>
			<path d="M163.84,270.042c0,50.817,41.343,92.16,92.16,92.16c50.816,0,92.16-41.343,92.16-92.16s-41.344-92.16-92.16-92.16     C205.183,177.882,163.84,219.224,163.84,270.042z M331.992,270.042c0,41.902-34.089,75.992-75.992,75.992     c-41.902,0-75.992-34.089-75.992-75.992c0-41.902,34.09-75.992,75.992-75.992C297.902,194.05,331.992,228.14,331.992,270.042z" data-original="#000000" class="active-path" data-old_color="#e350b8" fill="#e350b8"/>
			<path d="M201.598,270.042c0,29.998,24.405,54.402,54.402,54.402s54.402-24.405,54.402-54.402     c0-29.998-24.405-54.401-54.402-54.401S201.598,240.044,201.598,270.042z M294.234,270.042c0,21.083-17.151,38.234-38.234,38.234     s-38.234-17.151-38.234-38.234c0-21.081,17.151-38.233,38.234-38.233C277.083,231.809,294.234,248.96,294.234,270.042z" data-original="#000000" class="active-path" data-old_color="#e350b8" fill="#e350b8"/>
			<path d="M80.268,151.702H46.645c-4.466,0-8.084,3.62-8.084,8.084s3.619,8.084,8.084,8.084h33.622c4.466,0,8.084-3.62,8.084-8.084     S84.732,151.702,80.268,151.702z" data-original="#000000" class="active-path" data-old_color="#e350b8" fill="#e350b8"/>
			<path d="M110.2,165.504c1.499-1.509,2.371-3.589,2.371-5.724c0-2.123-0.873-4.204-2.371-5.713     c-1.508-1.498-3.589-2.361-5.723-2.361c-2.123,0-4.204,0.862-5.713,2.361c-1.499,1.509-2.361,3.589-2.361,5.713     c0,2.134,0.862,4.215,2.361,5.724c1.508,1.498,3.589,2.371,5.713,2.371C106.61,167.876,108.692,167.003,110.2,165.504z" data-original="#000000" class="active-path" data-old_color="#e350b8" fill="#e350b8"/>
		</g>
	</g>
</g></g> </svg>
